<mxfile host="app.diagrams.net" agent="Mozilla/5.0 (Macintosh; Intel Mac OS X 10_15_7) AppleWebKit/537.36 (KHTML, like Gecko) Chrome/134.0.0.0 Safari/537.36" version="26.1.3">
  <diagram name="PÃ¡gina-1" id="THvt4XEMVy-r72j_C59-">
    <mxGraphModel grid="1" page="1" gridSize="10" guides="1" tooltips="1" connect="1" arrows="1" fold="1" pageScale="1" pageWidth="827" pageHeight="1169" math="0" shadow="0">
      <root>
        <mxCell id="0" />
        <mxCell id="1" parent="0" />
        <mxCell id="zn5OT-CPFAkavPBHqEo0-1" value="" style="rounded=1;whiteSpace=wrap;html=1;" vertex="1" parent="1">
          <mxGeometry x="20" y="70" width="852.5" height="970" as="geometry" />
        </mxCell>
        <mxCell id="ChahyyR_kMB4jTQxaiLf-17" style="edgeStyle=orthogonalEdgeStyle;rounded=0;orthogonalLoop=1;jettySize=auto;html=1;exitX=0.5;exitY=1;exitDx=0;exitDy=0;exitPerimeter=0;" edge="1" parent="1" source="ChahyyR_kMB4jTQxaiLf-2" target="ChahyyR_kMB4jTQxaiLf-3">
          <mxGeometry relative="1" as="geometry" />
        </mxCell>
        <mxCell id="ChahyyR_kMB4jTQxaiLf-2" value="" style="points=[[0.145,0.145,0],[0.5,0,0],[0.855,0.145,0],[1,0.5,0],[0.855,0.855,0],[0.5,1,0],[0.145,0.855,0],[0,0.5,0]];shape=mxgraph.bpmn.event;html=1;verticalLabelPosition=bottom;labelBackgroundColor=#ffffff;verticalAlign=top;align=center;perimeter=ellipsePerimeter;outlineConnect=0;aspect=fixed;outline=standard;symbol=general;" vertex="1" parent="1">
          <mxGeometry x="388.75" y="90" width="30" height="30" as="geometry" />
        </mxCell>
        <mxCell id="ChahyyR_kMB4jTQxaiLf-20" style="edgeStyle=orthogonalEdgeStyle;rounded=0;orthogonalLoop=1;jettySize=auto;html=1;exitX=0.5;exitY=1;exitDx=0;exitDy=0;exitPerimeter=0;entryX=0.5;entryY=0;entryDx=0;entryDy=0;entryPerimeter=0;curved=1;" edge="1" parent="1" source="ChahyyR_kMB4jTQxaiLf-3" target="zn5OT-CPFAkavPBHqEo0-18">
          <mxGeometry relative="1" as="geometry">
            <mxPoint x="404" y="210" as="targetPoint" />
          </mxGeometry>
        </mxCell>
        <mxCell id="ChahyyR_kMB4jTQxaiLf-24" style="edgeStyle=orthogonalEdgeStyle;rounded=0;orthogonalLoop=1;jettySize=auto;html=1;exitX=1;exitY=0.5;exitDx=0;exitDy=0;exitPerimeter=0;curved=1;" edge="1" parent="1" source="ChahyyR_kMB4jTQxaiLf-3" target="zn5OT-CPFAkavPBHqEo0-11">
          <mxGeometry relative="1" as="geometry" />
        </mxCell>
        <mxCell id="ChahyyR_kMB4jTQxaiLf-3" value="" style="points=[[0.25,0.25,0],[0.5,0,0],[0.75,0.25,0],[1,0.5,0],[0.75,0.75,0],[0.5,1,0],[0.25,0.75,0],[0,0.5,0]];shape=mxgraph.bpmn.gateway2;html=1;verticalLabelPosition=bottom;labelBackgroundColor=#ffffff;verticalAlign=top;align=center;perimeter=rhombusPerimeter;outlineConnect=0;outline=none;symbol=none;gwType=parallel;" vertex="1" parent="1">
          <mxGeometry x="389.75" y="150" width="28" height="30" as="geometry" />
        </mxCell>
        <mxCell id="zn5OT-CPFAkavPBHqEo0-2" value="" style="points=[[0.145,0.145,0],[0.5,0,0],[0.855,0.145,0],[1,0.5,0],[0.855,0.855,0],[0.5,1,0],[0.145,0.855,0],[0,0.5,0]];shape=mxgraph.bpmn.event;html=1;verticalLabelPosition=bottom;labelBackgroundColor=#ffffff;verticalAlign=top;align=center;perimeter=ellipsePerimeter;outlineConnect=0;aspect=fixed;outline=end;symbol=terminate2;" vertex="1" parent="1">
          <mxGeometry x="399" y="980" width="30" height="30" as="geometry" />
        </mxCell>
        <mxCell id="ChahyyR_kMB4jTQxaiLf-31" style="edgeStyle=orthogonalEdgeStyle;rounded=0;orthogonalLoop=1;jettySize=auto;html=1;exitX=0.5;exitY=1;exitDx=0;exitDy=0;exitPerimeter=0;" edge="1" parent="1" source="zn5OT-CPFAkavPBHqEo0-11" target="zn5OT-CPFAkavPBHqEo0-17">
          <mxGeometry relative="1" as="geometry" />
        </mxCell>
        <mxCell id="zn5OT-CPFAkavPBHqEo0-11" value="Category Load" style="points=[[0.25,0,0],[0.5,0,0],[0.75,0,0],[1,0.25,0],[1,0.5,0],[1,0.75,0],[0.75,1,0],[0.5,1,0],[0.25,1,0],[0,0.75,0],[0,0.5,0],[0,0.25,0]];shape=mxgraph.bpmn.task2;whiteSpace=wrap;rectStyle=rounded;size=10;html=1;container=1;expand=0;collapsible=0;taskMarker=abstract;isLoopSub=1;" vertex="1" parent="1">
          <mxGeometry x="490" y="230" width="90" height="50" as="geometry" />
        </mxCell>
        <mxCell id="zn5OT-CPFAkavPBHqEo0-13" value="Shipping Load" style="points=[[0.25,0,0],[0.5,0,0],[0.75,0,0],[1,0.25,0],[1,0.5,0],[1,0.75,0],[0.75,1,0],[0.5,1,0],[0.25,1,0],[0,0.75,0],[0,0.5,0],[0,0.25,0]];shape=mxgraph.bpmn.task2;whiteSpace=wrap;rectStyle=rounded;size=10;html=1;container=1;expand=0;collapsible=0;taskMarker=abstract;isLoopSub=1;" vertex="1" parent="1">
          <mxGeometry x="100" y="320" width="90" height="50" as="geometry" />
        </mxCell>
        <mxCell id="zn5OT-CPFAkavPBHqEo0-14" value="Calendar Load" style="points=[[0.25,0,0],[0.5,0,0],[0.75,0,0],[1,0.25,0],[1,0.5,0],[1,0.75,0],[0.75,1,0],[0.5,1,0],[0.25,1,0],[0,0.75,0],[0,0.5,0],[0,0.25,0]];shape=mxgraph.bpmn.task2;whiteSpace=wrap;rectStyle=rounded;size=10;html=1;container=1;expand=0;collapsible=0;taskMarker=abstract;isLoopSub=1;direction=east;" vertex="1" parent="1">
          <mxGeometry x="330.75" y="395" width="90" height="50" as="geometry" />
        </mxCell>
        <mxCell id="zn5OT-CPFAkavPBHqEo0-16" value="Customer Load" style="points=[[0.25,0,0],[0.5,0,0],[0.75,0,0],[1,0.25,0],[1,0.5,0],[1,0.75,0],[0.75,1,0],[0.5,1,0],[0.25,1,0],[0,0.75,0],[0,0.5,0],[0,0.25,0]];shape=mxgraph.bpmn.task2;whiteSpace=wrap;rectStyle=rounded;size=10;html=1;container=1;expand=0;collapsible=0;taskMarker=abstract;isLoopSub=1;" vertex="1" parent="1">
          <mxGeometry x="230" y="320" width="90" height="50" as="geometry" />
        </mxCell>
        <mxCell id="ChahyyR_kMB4jTQxaiLf-58" style="edgeStyle=orthogonalEdgeStyle;shape=connector;rounded=0;orthogonalLoop=1;jettySize=auto;html=1;exitX=0.5;exitY=1;exitDx=0;exitDy=0;exitPerimeter=0;strokeColor=default;align=center;verticalAlign=middle;fontFamily=Helvetica;fontSize=11;fontColor=default;labelBackgroundColor=default;endArrow=classic;curved=1;" edge="1" parent="1" source="zn5OT-CPFAkavPBHqEo0-17" target="zn5OT-CPFAkavPBHqEo0-47">
          <mxGeometry relative="1" as="geometry" />
        </mxCell>
        <mxCell id="zn5OT-CPFAkavPBHqEo0-17" value="Product Load" style="points=[[0.25,0,0],[0.5,0,0],[0.75,0,0],[1,0.25,0],[1,0.5,0],[1,0.75,0],[0.75,1,0],[0.5,1,0],[0.25,1,0],[0,0.75,0],[0,0.5,0],[0,0.25,0]];shape=mxgraph.bpmn.task2;whiteSpace=wrap;rectStyle=rounded;size=10;html=1;container=1;expand=0;collapsible=0;taskMarker=abstract;isLoopSub=1;" vertex="1" parent="1">
          <mxGeometry x="490" y="400" width="90" height="50" as="geometry" />
        </mxCell>
        <mxCell id="zn5OT-CPFAkavPBHqEo0-18" value="CalendarMonth&lt;div&gt;Load&lt;/div&gt;" style="points=[[0.25,0,0],[0.5,0,0],[0.75,0,0],[1,0.25,0],[1,0.5,0],[1,0.75,0],[0.75,1,0],[0.5,1,0],[0.25,1,0],[0,0.75,0],[0,0.5,0],[0,0.25,0]];shape=mxgraph.bpmn.task2;whiteSpace=wrap;rectStyle=rounded;size=10;html=1;container=1;expand=0;collapsible=0;taskMarker=abstract;isLoopSub=1;" vertex="1" parent="1">
          <mxGeometry x="330.75" y="230" width="90" height="60" as="geometry" />
        </mxCell>
        <mxCell id="zn5OT-CPFAkavPBHqEo0-23" value="Region Load" style="points=[[0.25,0,0],[0.5,0,0],[0.75,0,0],[1,0.25,0],[1,0.5,0],[1,0.75,0],[0.75,1,0],[0.5,1,0],[0.25,1,0],[0,0.75,0],[0,0.5,0],[0,0.25,0]];shape=mxgraph.bpmn.task2;whiteSpace=wrap;rectStyle=rounded;size=10;html=1;container=1;expand=0;collapsible=0;taskMarker=abstract;isLoopSub=1;" vertex="1" parent="1">
          <mxGeometry x="621" y="230" width="90" height="50" as="geometry" />
        </mxCell>
        <mxCell id="ChahyyR_kMB4jTQxaiLf-54" style="edgeStyle=orthogonalEdgeStyle;shape=connector;rounded=0;orthogonalLoop=1;jettySize=auto;html=1;exitX=0.5;exitY=1;exitDx=0;exitDy=0;exitPerimeter=0;strokeColor=default;align=center;verticalAlign=middle;fontFamily=Helvetica;fontSize=11;fontColor=default;labelBackgroundColor=default;endArrow=classic;" edge="1" parent="1" source="zn5OT-CPFAkavPBHqEo0-25" target="zn5OT-CPFAkavPBHqEo0-46">
          <mxGeometry relative="1" as="geometry" />
        </mxCell>
        <mxCell id="zn5OT-CPFAkavPBHqEo0-25" value="ShippingBehaviourS Load" style="points=[[0.25,0,0],[0.5,0,0],[0.75,0,0],[1,0.25,0],[1,0.5,0],[1,0.75,0],[0.75,1,0],[0.5,1,0],[0.25,1,0],[0,0.75,0],[0,0.5,0],[0,0.25,0]];shape=mxgraph.bpmn.task2;whiteSpace=wrap;rectStyle=rounded;size=10;html=1;container=1;expand=0;collapsible=0;taskMarker=abstract;isLoopSub=1;" vertex="1" parent="1">
          <mxGeometry x="85" y="555" width="120" height="60" as="geometry" />
        </mxCell>
        <mxCell id="zn5OT-CPFAkavPBHqEo0-26" value="ShippingBehaviour Load" style="points=[[0.25,0,0],[0.5,0,0],[0.75,0,0],[1,0.25,0],[1,0.5,0],[1,0.75,0],[0.75,1,0],[0.5,1,0],[0.25,1,0],[0,0.75,0],[0,0.5,0],[0,0.25,0]];shape=mxgraph.bpmn.task2;whiteSpace=wrap;rectStyle=rounded;size=10;html=1;container=1;expand=0;collapsible=0;taskMarker=abstract;isLoopSub=1;" vertex="1" parent="1">
          <mxGeometry x="90" y="760" width="110" height="60" as="geometry" />
        </mxCell>
        <mxCell id="zn5OT-CPFAkavPBHqEo0-27" value="ProductPerformance Load" style="points=[[0.25,0,0],[0.5,0,0],[0.75,0,0],[1,0.25,0],[1,0.5,0],[1,0.75,0],[0.75,1,0],[0.5,1,0],[0.25,1,0],[0,0.75,0],[0,0.5,0],[0,0.25,0]];shape=mxgraph.bpmn.task2;whiteSpace=wrap;rectStyle=rounded;size=10;html=1;container=1;expand=0;collapsible=0;taskMarker=abstract;isLoopSub=1;" vertex="1" parent="1">
          <mxGeometry x="410" y="600" width="120.62" height="60" as="geometry" />
        </mxCell>
        <mxCell id="zn5OT-CPFAkavPBHqEo0-28" value="OrderM Load" style="points=[[0.25,0,0],[0.5,0,0],[0.75,0,0],[1,0.25,0],[1,0.5,0],[1,0.75,0],[0.75,1,0],[0.5,1,0],[0.25,1,0],[0,0.75,0],[0,0.5,0],[0,0.25,0]];shape=mxgraph.bpmn.task2;whiteSpace=wrap;rectStyle=rounded;size=10;html=1;container=1;expand=0;collapsible=0;taskMarker=abstract;isLoopSub=1;" vertex="1" parent="1">
          <mxGeometry x="240.75" y="610" width="90" height="50" as="geometry" />
        </mxCell>
        <mxCell id="zn5OT-CPFAkavPBHqEo0-29" value="Order Load" style="points=[[0.25,0,0],[0.5,0,0],[0.75,0,0],[1,0.25,0],[1,0.5,0],[1,0.75,0],[0.75,1,0],[0.5,1,0],[0.25,1,0],[0,0.75,0],[0,0.5,0],[0,0.25,0]];shape=mxgraph.bpmn.task2;whiteSpace=wrap;rectStyle=rounded;size=10;html=1;container=1;expand=0;collapsible=0;taskMarker=abstract;isLoopSub=1;" vertex="1" parent="1">
          <mxGeometry x="240.75" y="740" width="90" height="50" as="geometry" />
        </mxCell>
        <mxCell id="zn5OT-CPFAkavPBHqEo0-30" value="Item Load" style="points=[[0.25,0,0],[0.5,0,0],[0.75,0,0],[1,0.25,0],[1,0.5,0],[1,0.75,0],[0.75,1,0],[0.5,1,0],[0.25,1,0],[0,0.75,0],[0,0.5,0],[0,0.25,0]];shape=mxgraph.bpmn.task2;whiteSpace=wrap;rectStyle=rounded;size=10;html=1;container=1;expand=0;collapsible=0;taskMarker=abstract;isLoopSub=1;" vertex="1" parent="1">
          <mxGeometry x="621" y="760" width="90" height="50" as="geometry" />
        </mxCell>
        <mxCell id="ChahyyR_kMB4jTQxaiLf-23" style="edgeStyle=orthogonalEdgeStyle;rounded=0;orthogonalLoop=1;jettySize=auto;html=1;exitX=0;exitY=0.5;exitDx=0;exitDy=0;exitPerimeter=0;entryX=0.5;entryY=0;entryDx=0;entryDy=0;entryPerimeter=0;curved=1;" edge="1" parent="1" source="ChahyyR_kMB4jTQxaiLf-3" target="zn5OT-CPFAkavPBHqEo0-16">
          <mxGeometry relative="1" as="geometry">
            <mxPoint x="275" y="230.0000000000001" as="targetPoint" />
          </mxGeometry>
        </mxCell>
        <mxCell id="ChahyyR_kMB4jTQxaiLf-28" style="edgeStyle=orthogonalEdgeStyle;rounded=0;orthogonalLoop=1;jettySize=auto;html=1;exitX=0.5;exitY=1;exitDx=0;exitDy=0;exitPerimeter=0;" edge="1" parent="1" source="ChahyyR_kMB4jTQxaiLf-25" target="zn5OT-CPFAkavPBHqEo0-2">
          <mxGeometry relative="1" as="geometry" />
        </mxCell>
        <mxCell id="ChahyyR_kMB4jTQxaiLf-25" value="" style="points=[[0.25,0.25,0],[0.5,0,0],[0.75,0.25,0],[1,0.5,0],[0.75,0.75,0],[0.5,1,0],[0.25,0.75,0],[0,0.5,0]];shape=mxgraph.bpmn.gateway2;html=1;verticalLabelPosition=bottom;labelBackgroundColor=#ffffff;verticalAlign=top;align=center;perimeter=rhombusPerimeter;outlineConnect=0;outline=none;symbol=none;gwType=parallel;" vertex="1" parent="1">
          <mxGeometry x="400" y="900" width="28" height="30" as="geometry" />
        </mxCell>
        <mxCell id="A_qjBwN7MbCpHj2VIYGN-1" style="edgeStyle=orthogonalEdgeStyle;rounded=0;orthogonalLoop=1;jettySize=auto;html=1;exitX=0.5;exitY=1;exitDx=0;exitDy=0;exitPerimeter=0;entryX=0.5;entryY=0;entryDx=0;entryDy=0;entryPerimeter=0;" edge="1" parent="1" source="zn5OT-CPFAkavPBHqEo0-18" target="zn5OT-CPFAkavPBHqEo0-14">
          <mxGeometry relative="1" as="geometry" />
        </mxCell>
        <mxCell id="zn5OT-CPFAkavPBHqEo0-35" style="edgeStyle=orthogonalEdgeStyle;rounded=0;orthogonalLoop=1;jettySize=auto;html=1;exitX=0;exitY=0.5;exitDx=0;exitDy=0;exitPerimeter=0;entryX=0.5;entryY=0;entryDx=0;entryDy=0;entryPerimeter=0;curved=1;" edge="1" parent="1" source="ChahyyR_kMB4jTQxaiLf-3" target="zn5OT-CPFAkavPBHqEo0-13">
          <mxGeometry relative="1" as="geometry" />
        </mxCell>
        <mxCell id="A_qjBwN7MbCpHj2VIYGN-2" style="edgeStyle=orthogonalEdgeStyle;rounded=0;orthogonalLoop=1;jettySize=auto;html=1;exitX=0.5;exitY=1;exitDx=0;exitDy=0;exitPerimeter=0;entryX=0.5;entryY=0;entryDx=0;entryDy=0;entryPerimeter=0;" edge="1" parent="1" source="zn5OT-CPFAkavPBHqEo0-11" target="zn5OT-CPFAkavPBHqEo0-17">
          <mxGeometry relative="1" as="geometry" />
        </mxCell>
        <mxCell id="zn5OT-CPFAkavPBHqEo0-37" style="edgeStyle=orthogonalEdgeStyle;rounded=0;orthogonalLoop=1;jettySize=auto;html=1;exitX=0;exitY=0.5;exitDx=0;exitDy=0;exitPerimeter=0;curved=1;entryX=0.5;entryY=0;entryDx=0;entryDy=0;entryPerimeter=0;" edge="1" parent="1" source="zn5OT-CPFAkavPBHqEo0-11" target="zn5OT-CPFAkavPBHqEo0-43">
          <mxGeometry relative="1" as="geometry">
            <mxPoint x="470" y="490" as="targetPoint" />
          </mxGeometry>
        </mxCell>
        <mxCell id="zn5OT-CPFAkavPBHqEo0-36" style="edgeStyle=orthogonalEdgeStyle;rounded=0;orthogonalLoop=1;jettySize=auto;html=1;exitX=1;exitY=0.5;exitDx=0;exitDy=0;exitPerimeter=0;entryX=0.5;entryY=0;entryDx=0;entryDy=0;entryPerimeter=0;curved=1;" edge="1" parent="1" source="ChahyyR_kMB4jTQxaiLf-3" target="zn5OT-CPFAkavPBHqEo0-23">
          <mxGeometry relative="1" as="geometry" />
        </mxCell>
        <mxCell id="zn5OT-CPFAkavPBHqEo0-42" value="" style="points=[[0.25,0.25,0],[0.5,0,0],[0.75,0.25,0],[1,0.5,0],[0.75,0.75,0],[0.5,1,0],[0.25,0.75,0],[0,0.5,0]];shape=mxgraph.bpmn.gateway2;html=1;verticalLabelPosition=bottom;labelBackgroundColor=#ffffff;verticalAlign=top;align=center;perimeter=rhombusPerimeter;outlineConnect=0;outline=none;symbol=none;gwType=parallel;" vertex="1" parent="1">
          <mxGeometry x="271.75" y="690" width="28" height="30" as="geometry" />
        </mxCell>
        <mxCell id="zn5OT-CPFAkavPBHqEo0-43" value="" style="points=[[0.25,0.25,0],[0.5,0,0],[0.75,0.25,0],[1,0.5,0],[0.75,0.75,0],[0.5,1,0],[0.25,0.75,0],[0,0.5,0]];shape=mxgraph.bpmn.gateway2;html=1;verticalLabelPosition=bottom;labelBackgroundColor=#ffffff;verticalAlign=top;align=center;perimeter=rhombusPerimeter;outlineConnect=0;outline=none;symbol=none;gwType=parallel;" vertex="1" parent="1">
          <mxGeometry x="456.31" y="540" width="28" height="30" as="geometry" />
        </mxCell>
        <mxCell id="ChahyyR_kMB4jTQxaiLf-69" style="edgeStyle=orthogonalEdgeStyle;shape=connector;rounded=0;orthogonalLoop=1;jettySize=auto;html=1;exitX=0.5;exitY=1;exitDx=0;exitDy=0;exitPerimeter=0;strokeColor=default;align=center;verticalAlign=middle;fontFamily=Helvetica;fontSize=11;fontColor=default;labelBackgroundColor=default;endArrow=classic;" edge="1" parent="1" source="zn5OT-CPFAkavPBHqEo0-44" target="zn5OT-CPFAkavPBHqEo0-28">
          <mxGeometry relative="1" as="geometry" />
        </mxCell>
        <mxCell id="zn5OT-CPFAkavPBHqEo0-44" value="" style="points=[[0.25,0.25,0],[0.5,0,0],[0.75,0.25,0],[1,0.5,0],[0.75,0.75,0],[0.5,1,0],[0.25,0.75,0],[0,0.5,0]];shape=mxgraph.bpmn.gateway2;html=1;verticalLabelPosition=bottom;labelBackgroundColor=#ffffff;verticalAlign=top;align=center;perimeter=rhombusPerimeter;outlineConnect=0;outline=none;symbol=none;gwType=parallel;" vertex="1" parent="1">
          <mxGeometry x="271.75" y="560" width="28" height="30" as="geometry" />
        </mxCell>
        <mxCell id="ChahyyR_kMB4jTQxaiLf-50" style="edgeStyle=orthogonalEdgeStyle;shape=connector;rounded=0;orthogonalLoop=1;jettySize=auto;html=1;exitX=0.5;exitY=1;exitDx=0;exitDy=0;exitPerimeter=0;strokeColor=default;align=center;verticalAlign=middle;fontFamily=Helvetica;fontSize=11;fontColor=default;labelBackgroundColor=default;endArrow=classic;" edge="1" parent="1" source="zn5OT-CPFAkavPBHqEo0-45" target="zn5OT-CPFAkavPBHqEo0-25">
          <mxGeometry relative="1" as="geometry" />
        </mxCell>
        <mxCell id="zn5OT-CPFAkavPBHqEo0-45" value="" style="points=[[0.25,0.25,0],[0.5,0,0],[0.75,0.25,0],[1,0.5,0],[0.75,0.75,0],[0.5,1,0],[0.25,0.75,0],[0,0.5,0]];shape=mxgraph.bpmn.gateway2;html=1;verticalLabelPosition=bottom;labelBackgroundColor=#ffffff;verticalAlign=top;align=center;perimeter=rhombusPerimeter;outlineConnect=0;outline=none;symbol=none;gwType=parallel;" vertex="1" parent="1">
          <mxGeometry x="131" y="500" width="28" height="30" as="geometry" />
        </mxCell>
        <mxCell id="zn5OT-CPFAkavPBHqEo0-46" value="" style="points=[[0.25,0.25,0],[0.5,0,0],[0.75,0.25,0],[1,0.5,0],[0.75,0.75,0],[0.5,1,0],[0.25,0.75,0],[0,0.5,0]];shape=mxgraph.bpmn.gateway2;html=1;verticalLabelPosition=bottom;labelBackgroundColor=#ffffff;verticalAlign=top;align=center;perimeter=rhombusPerimeter;outlineConnect=0;outline=none;symbol=none;gwType=parallel;" vertex="1" parent="1">
          <mxGeometry x="131" y="700" width="28" height="30" as="geometry" />
        </mxCell>
        <mxCell id="ChahyyR_kMB4jTQxaiLf-65" style="edgeStyle=orthogonalEdgeStyle;shape=connector;rounded=0;orthogonalLoop=1;jettySize=auto;html=1;exitX=0.5;exitY=1;exitDx=0;exitDy=0;exitPerimeter=0;strokeColor=default;align=center;verticalAlign=middle;fontFamily=Helvetica;fontSize=11;fontColor=default;labelBackgroundColor=default;endArrow=classic;" edge="1" parent="1" source="zn5OT-CPFAkavPBHqEo0-47" target="zn5OT-CPFAkavPBHqEo0-30">
          <mxGeometry relative="1" as="geometry" />
        </mxCell>
        <mxCell id="zn5OT-CPFAkavPBHqEo0-47" value="" style="points=[[0.25,0.25,0],[0.5,0,0],[0.75,0.25,0],[1,0.5,0],[0.75,0.75,0],[0.5,1,0],[0.25,0.75,0],[0,0.5,0]];shape=mxgraph.bpmn.gateway2;html=1;verticalLabelPosition=bottom;labelBackgroundColor=#ffffff;verticalAlign=top;align=center;perimeter=rhombusPerimeter;outlineConnect=0;outline=none;symbol=none;gwType=parallel;" vertex="1" parent="1">
          <mxGeometry x="652" y="590" width="28" height="30" as="geometry" />
        </mxCell>
        <mxCell id="ChahyyR_kMB4jTQxaiLf-39" style="edgeStyle=orthogonalEdgeStyle;shape=connector;rounded=0;orthogonalLoop=1;jettySize=auto;html=1;exitX=0.5;exitY=1;exitDx=0;exitDy=0;exitPerimeter=0;strokeColor=default;align=center;verticalAlign=middle;fontFamily=Helvetica;fontSize=11;fontColor=default;labelBackgroundColor=default;endArrow=classic;" edge="1" parent="1" source="ChahyyR_kMB4jTQxaiLf-36" target="ChahyyR_kMB4jTQxaiLf-37">
          <mxGeometry relative="1" as="geometry" />
        </mxCell>
        <mxCell id="ChahyyR_kMB4jTQxaiLf-36" value="State Load" style="points=[[0.25,0,0],[0.5,0,0],[0.75,0,0],[1,0.25,0],[1,0.5,0],[1,0.75,0],[0.75,1,0],[0.5,1,0],[0.25,1,0],[0,0.75,0],[0,0.5,0],[0,0.25,0]];shape=mxgraph.bpmn.task2;whiteSpace=wrap;rectStyle=rounded;size=10;html=1;container=1;expand=0;collapsible=0;taskMarker=abstract;isLoopSub=1;" vertex="1" parent="1">
          <mxGeometry x="621" y="320" width="90" height="50" as="geometry" />
        </mxCell>
        <mxCell id="ChahyyR_kMB4jTQxaiLf-37" value="Location Load" style="points=[[0.25,0,0],[0.5,0,0],[0.75,0,0],[1,0.25,0],[1,0.5,0],[1,0.75,0],[0.75,1,0],[0.5,1,0],[0.25,1,0],[0,0.75,0],[0,0.5,0],[0,0.25,0]];shape=mxgraph.bpmn.task2;whiteSpace=wrap;rectStyle=rounded;size=10;html=1;container=1;expand=0;collapsible=0;taskMarker=abstract;isLoopSub=1;" vertex="1" parent="1">
          <mxGeometry x="621" y="400" width="90" height="50" as="geometry" />
        </mxCell>
        <mxCell id="ChahyyR_kMB4jTQxaiLf-38" style="edgeStyle=orthogonalEdgeStyle;shape=connector;rounded=0;orthogonalLoop=1;jettySize=auto;html=1;exitX=0.5;exitY=1;exitDx=0;exitDy=0;exitPerimeter=0;entryX=0.5;entryY=0;entryDx=0;entryDy=0;entryPerimeter=0;strokeColor=default;align=center;verticalAlign=middle;fontFamily=Helvetica;fontSize=11;fontColor=default;labelBackgroundColor=default;endArrow=classic;" edge="1" parent="1" source="zn5OT-CPFAkavPBHqEo0-23" target="ChahyyR_kMB4jTQxaiLf-36">
          <mxGeometry relative="1" as="geometry" />
        </mxCell>
        <mxCell id="ChahyyR_kMB4jTQxaiLf-41" style="edgeStyle=orthogonalEdgeStyle;shape=connector;rounded=0;orthogonalLoop=1;jettySize=auto;html=1;exitX=0.5;exitY=1;exitDx=0;exitDy=0;exitPerimeter=0;entryX=0.5;entryY=0;entryDx=0;entryDy=0;entryPerimeter=0;strokeColor=default;align=center;verticalAlign=middle;fontFamily=Helvetica;fontSize=11;fontColor=default;labelBackgroundColor=default;endArrow=classic;curved=1;" edge="1" parent="1" source="zn5OT-CPFAkavPBHqEo0-43" target="zn5OT-CPFAkavPBHqEo0-27">
          <mxGeometry relative="1" as="geometry" />
        </mxCell>
        <mxCell id="zn5OT-CPFAkavPBHqEo0-53" style="edgeStyle=orthogonalEdgeStyle;rounded=0;orthogonalLoop=1;jettySize=auto;html=1;exitX=0.5;exitY=1;exitDx=0;exitDy=0;exitPerimeter=0;entryX=0.5;entryY=0;entryDx=0;entryDy=0;entryPerimeter=0;" edge="1" parent="1" source="zn5OT-CPFAkavPBHqEo0-13" target="zn5OT-CPFAkavPBHqEo0-45">
          <mxGeometry relative="1" as="geometry" />
        </mxCell>
        <mxCell id="ChahyyR_kMB4jTQxaiLf-55" style="edgeStyle=orthogonalEdgeStyle;shape=connector;rounded=0;orthogonalLoop=1;jettySize=auto;html=1;exitX=0.5;exitY=1;exitDx=0;exitDy=0;exitPerimeter=0;entryX=0.5;entryY=0;entryDx=0;entryDy=0;entryPerimeter=0;strokeColor=default;align=center;verticalAlign=middle;fontFamily=Helvetica;fontSize=11;fontColor=default;labelBackgroundColor=default;endArrow=classic;" edge="1" parent="1" source="zn5OT-CPFAkavPBHqEo0-46" target="zn5OT-CPFAkavPBHqEo0-26">
          <mxGeometry relative="1" as="geometry" />
        </mxCell>
        <mxCell id="ChahyyR_kMB4jTQxaiLf-56" style="edgeStyle=orthogonalEdgeStyle;shape=connector;rounded=0;orthogonalLoop=1;jettySize=auto;html=1;exitX=0.5;exitY=1;exitDx=0;exitDy=0;exitPerimeter=0;entryX=0.5;entryY=0;entryDx=0;entryDy=0;entryPerimeter=0;strokeColor=default;align=center;verticalAlign=middle;fontFamily=Helvetica;fontSize=11;fontColor=default;labelBackgroundColor=default;endArrow=classic;" edge="1" parent="1" source="ChahyyR_kMB4jTQxaiLf-37" target="zn5OT-CPFAkavPBHqEo0-47">
          <mxGeometry relative="1" as="geometry" />
        </mxCell>
        <mxCell id="ChahyyR_kMB4jTQxaiLf-59" style="edgeStyle=orthogonalEdgeStyle;shape=connector;rounded=0;orthogonalLoop=1;jettySize=auto;html=1;exitX=1;exitY=0.5;exitDx=0;exitDy=0;exitPerimeter=0;entryX=0.5;entryY=0;entryDx=0;entryDy=0;entryPerimeter=0;strokeColor=default;align=center;verticalAlign=middle;fontFamily=Helvetica;fontSize=11;fontColor=default;labelBackgroundColor=default;endArrow=classic;curved=1;" edge="1" parent="1" source="zn5OT-CPFAkavPBHqEo0-18" target="zn5OT-CPFAkavPBHqEo0-43">
          <mxGeometry relative="1" as="geometry" />
        </mxCell>
        <mxCell id="ChahyyR_kMB4jTQxaiLf-60" style="edgeStyle=orthogonalEdgeStyle;shape=connector;rounded=0;orthogonalLoop=1;jettySize=auto;html=1;exitX=0;exitY=0.5;exitDx=0;exitDy=0;exitPerimeter=0;entryX=0.5;entryY=0;entryDx=0;entryDy=0;entryPerimeter=0;strokeColor=default;align=center;verticalAlign=middle;fontFamily=Helvetica;fontSize=11;fontColor=default;labelBackgroundColor=default;endArrow=classic;curved=1;" edge="1" parent="1" source="ChahyyR_kMB4jTQxaiLf-36" target="zn5OT-CPFAkavPBHqEo0-43">
          <mxGeometry relative="1" as="geometry">
            <Array as="points">
              <mxPoint x="621" y="340" />
              <mxPoint x="470" y="340" />
            </Array>
          </mxGeometry>
        </mxCell>
        <mxCell id="ChahyyR_kMB4jTQxaiLf-61" style="edgeStyle=orthogonalEdgeStyle;shape=connector;rounded=0;orthogonalLoop=1;jettySize=auto;html=1;exitX=0;exitY=0.5;exitDx=0;exitDy=0;exitPerimeter=0;entryX=0.5;entryY=0;entryDx=0;entryDy=0;entryPerimeter=0;strokeColor=default;align=center;verticalAlign=middle;fontFamily=Helvetica;fontSize=11;fontColor=default;labelBackgroundColor=default;endArrow=classic;curved=1;" edge="1" parent="1" source="zn5OT-CPFAkavPBHqEo0-11" target="zn5OT-CPFAkavPBHqEo0-45">
          <mxGeometry relative="1" as="geometry">
            <Array as="points">
              <mxPoint x="490" y="380" />
              <mxPoint x="145" y="380" />
            </Array>
          </mxGeometry>
        </mxCell>
        <mxCell id="ChahyyR_kMB4jTQxaiLf-62" style="edgeStyle=orthogonalEdgeStyle;shape=connector;rounded=0;orthogonalLoop=1;jettySize=auto;html=1;exitX=0;exitY=0.5;exitDx=0;exitDy=0;exitPerimeter=0;entryX=0.5;entryY=0;entryDx=0;entryDy=0;entryPerimeter=0;strokeColor=default;align=center;verticalAlign=middle;fontFamily=Helvetica;fontSize=11;fontColor=default;labelBackgroundColor=default;endArrow=classic;curved=1;" edge="1" parent="1" source="ChahyyR_kMB4jTQxaiLf-36" target="zn5OT-CPFAkavPBHqEo0-45">
          <mxGeometry relative="1" as="geometry">
            <Array as="points">
              <mxPoint x="300" y="345" />
              <mxPoint x="300" y="440" />
              <mxPoint x="145" y="440" />
            </Array>
          </mxGeometry>
        </mxCell>
        <mxCell id="ChahyyR_kMB4jTQxaiLf-63" style="edgeStyle=orthogonalEdgeStyle;shape=connector;rounded=0;orthogonalLoop=1;jettySize=auto;html=1;exitX=0.5;exitY=1;exitDx=0;exitDy=0;exitPerimeter=0;entryX=0.5;entryY=0;entryDx=0;entryDy=0;entryPerimeter=0;strokeColor=default;align=center;verticalAlign=middle;fontFamily=Helvetica;fontSize=11;fontColor=default;labelBackgroundColor=default;endArrow=classic;curved=1;" edge="1" parent="1" source="zn5OT-CPFAkavPBHqEo0-16" target="zn5OT-CPFAkavPBHqEo0-47">
          <mxGeometry relative="1" as="geometry">
            <Array as="points">
              <mxPoint x="275" y="470" />
              <mxPoint x="666" y="470" />
            </Array>
          </mxGeometry>
        </mxCell>
        <mxCell id="ChahyyR_kMB4jTQxaiLf-64" style="edgeStyle=orthogonalEdgeStyle;shape=connector;rounded=0;orthogonalLoop=1;jettySize=auto;html=1;exitX=0.5;exitY=1;exitDx=0;exitDy=0;exitPerimeter=0;entryX=0.5;entryY=0;entryDx=0;entryDy=0;entryPerimeter=0;strokeColor=default;align=center;verticalAlign=middle;fontFamily=Helvetica;fontSize=11;fontColor=default;labelBackgroundColor=default;endArrow=classic;curved=1;" edge="1" parent="1" source="zn5OT-CPFAkavPBHqEo0-14" target="zn5OT-CPFAkavPBHqEo0-47">
          <mxGeometry relative="1" as="geometry">
            <Array as="points">
              <mxPoint x="376" y="460" />
              <mxPoint x="666" y="460" />
            </Array>
          </mxGeometry>
        </mxCell>
        <mxCell id="zn5OT-CPFAkavPBHqEo0-58" style="edgeStyle=orthogonalEdgeStyle;rounded=0;orthogonalLoop=1;jettySize=auto;html=1;exitX=0;exitY=0.5;exitDx=0;exitDy=0;exitPerimeter=0;entryX=0.5;entryY=0;entryDx=0;entryDy=0;entryPerimeter=0;curved=1;" edge="1" parent="1" source="ChahyyR_kMB4jTQxaiLf-36" target="zn5OT-CPFAkavPBHqEo0-44">
          <mxGeometry relative="1" as="geometry">
            <Array as="points">
              <mxPoint x="440" y="345" />
              <mxPoint x="440" y="520" />
              <mxPoint x="286" y="520" />
            </Array>
          </mxGeometry>
        </mxCell>
        <mxCell id="ChahyyR_kMB4jTQxaiLf-67" style="edgeStyle=orthogonalEdgeStyle;shape=connector;rounded=0;orthogonalLoop=1;jettySize=auto;html=1;exitX=0.5;exitY=1;exitDx=0;exitDy=0;exitPerimeter=0;entryX=0.5;entryY=0;entryDx=0;entryDy=0;entryPerimeter=0;strokeColor=default;align=center;verticalAlign=middle;fontFamily=Helvetica;fontSize=11;fontColor=default;labelBackgroundColor=default;endArrow=classic;curved=1;" edge="1" parent="1" source="zn5OT-CPFAkavPBHqEo0-18" target="zn5OT-CPFAkavPBHqEo0-44">
          <mxGeometry relative="1" as="geometry">
            <Array as="points">
              <mxPoint x="376" y="390" />
              <mxPoint x="286" y="390" />
            </Array>
          </mxGeometry>
        </mxCell>
        <mxCell id="ChahyyR_kMB4jTQxaiLf-70" style="edgeStyle=orthogonalEdgeStyle;shape=connector;rounded=0;orthogonalLoop=1;jettySize=auto;html=1;exitX=0.5;exitY=1;exitDx=0;exitDy=0;exitPerimeter=0;entryX=0.5;entryY=0;entryDx=0;entryDy=0;entryPerimeter=0;strokeColor=default;align=center;verticalAlign=middle;fontFamily=Helvetica;fontSize=11;fontColor=default;labelBackgroundColor=default;endArrow=classic;" edge="1" parent="1" source="zn5OT-CPFAkavPBHqEo0-42" target="zn5OT-CPFAkavPBHqEo0-29">
          <mxGeometry relative="1" as="geometry" />
        </mxCell>
        <mxCell id="zn5OT-CPFAkavPBHqEo0-60" style="edgeStyle=orthogonalEdgeStyle;rounded=0;orthogonalLoop=1;jettySize=auto;html=1;exitX=0.5;exitY=1;exitDx=0;exitDy=0;exitPerimeter=0;entryX=0.5;entryY=0;entryDx=0;entryDy=0;entryPerimeter=0;" edge="1" parent="1" source="zn5OT-CPFAkavPBHqEo0-28" target="zn5OT-CPFAkavPBHqEo0-42">
          <mxGeometry relative="1" as="geometry" />
        </mxCell>
        <mxCell id="zn5OT-CPFAkavPBHqEo0-62" style="edgeStyle=orthogonalEdgeStyle;rounded=0;orthogonalLoop=1;jettySize=auto;html=1;exitX=0.5;exitY=1;exitDx=0;exitDy=0;exitPerimeter=0;entryX=0;entryY=0.5;entryDx=0;entryDy=0;entryPerimeter=0;curved=1;" edge="1" parent="1" source="zn5OT-CPFAkavPBHqEo0-16" target="zn5OT-CPFAkavPBHqEo0-42">
          <mxGeometry relative="1" as="geometry">
            <Array as="points">
              <mxPoint x="220" y="370" />
              <mxPoint x="220" y="705" />
            </Array>
          </mxGeometry>
        </mxCell>
        <mxCell id="ChahyyR_kMB4jTQxaiLf-71" style="edgeStyle=orthogonalEdgeStyle;shape=connector;rounded=0;orthogonalLoop=1;jettySize=auto;html=1;exitX=0.5;exitY=1;exitDx=0;exitDy=0;exitPerimeter=0;entryX=1;entryY=0.5;entryDx=0;entryDy=0;entryPerimeter=0;strokeColor=default;align=center;verticalAlign=middle;fontFamily=Helvetica;fontSize=11;fontColor=default;labelBackgroundColor=default;endArrow=classic;curved=1;" edge="1" parent="1" source="zn5OT-CPFAkavPBHqEo0-14" target="zn5OT-CPFAkavPBHqEo0-42">
          <mxGeometry relative="1" as="geometry" />
        </mxCell>
        <mxCell id="ChahyyR_kMB4jTQxaiLf-73" style="edgeStyle=orthogonalEdgeStyle;shape=connector;rounded=0;orthogonalLoop=1;jettySize=auto;html=1;exitX=0.5;exitY=1;exitDx=0;exitDy=0;exitPerimeter=0;entryX=0;entryY=0.5;entryDx=0;entryDy=0;entryPerimeter=0;strokeColor=default;align=center;verticalAlign=middle;fontFamily=Helvetica;fontSize=11;fontColor=default;labelBackgroundColor=default;endArrow=classic;curved=1;" edge="1" parent="1" source="zn5OT-CPFAkavPBHqEo0-13" target="zn5OT-CPFAkavPBHqEo0-42">
          <mxGeometry relative="1" as="geometry">
            <Array as="points">
              <mxPoint x="210" y="370" />
              <mxPoint x="210" y="705" />
            </Array>
          </mxGeometry>
        </mxCell>
        <mxCell id="zn5OT-CPFAkavPBHqEo0-64" style="edgeStyle=orthogonalEdgeStyle;rounded=0;orthogonalLoop=1;jettySize=auto;html=1;exitX=1;exitY=0.5;exitDx=0;exitDy=0;exitPerimeter=0;entryX=1;entryY=0.5;entryDx=0;entryDy=0;entryPerimeter=0;curved=1;" edge="1" parent="1" source="ChahyyR_kMB4jTQxaiLf-37" target="zn5OT-CPFAkavPBHqEo0-42">
          <mxGeometry relative="1" as="geometry">
            <Array as="points">
              <mxPoint x="800" y="425" />
              <mxPoint x="800" y="705" />
            </Array>
          </mxGeometry>
        </mxCell>
        <mxCell id="ChahyyR_kMB4jTQxaiLf-74" style="edgeStyle=orthogonalEdgeStyle;shape=connector;rounded=0;orthogonalLoop=1;jettySize=auto;html=1;exitX=0.5;exitY=1;exitDx=0;exitDy=0;exitPerimeter=0;entryX=0.5;entryY=0;entryDx=0;entryDy=0;entryPerimeter=0;strokeColor=default;align=center;verticalAlign=middle;fontFamily=Helvetica;fontSize=11;fontColor=default;labelBackgroundColor=default;endArrow=classic;curved=1;" edge="1" parent="1" source="zn5OT-CPFAkavPBHqEo0-27" target="ChahyyR_kMB4jTQxaiLf-25">
          <mxGeometry relative="1" as="geometry" />
        </mxCell>
        <mxCell id="ChahyyR_kMB4jTQxaiLf-76" style="edgeStyle=orthogonalEdgeStyle;shape=connector;rounded=0;orthogonalLoop=1;jettySize=auto;html=1;exitX=0.5;exitY=1;exitDx=0;exitDy=0;exitPerimeter=0;entryX=0.5;entryY=0;entryDx=0;entryDy=0;entryPerimeter=0;strokeColor=default;align=center;verticalAlign=middle;fontFamily=Helvetica;fontSize=11;fontColor=default;labelBackgroundColor=default;endArrow=classic;curved=1;" edge="1" parent="1" source="zn5OT-CPFAkavPBHqEo0-30" target="ChahyyR_kMB4jTQxaiLf-25">
          <mxGeometry relative="1" as="geometry" />
        </mxCell>
        <mxCell id="ChahyyR_kMB4jTQxaiLf-77" style="edgeStyle=orthogonalEdgeStyle;shape=connector;rounded=0;orthogonalLoop=1;jettySize=auto;html=1;exitX=0.5;exitY=1;exitDx=0;exitDy=0;exitPerimeter=0;entryX=0.5;entryY=0;entryDx=0;entryDy=0;entryPerimeter=0;strokeColor=default;align=center;verticalAlign=middle;fontFamily=Helvetica;fontSize=11;fontColor=default;labelBackgroundColor=default;endArrow=classic;curved=1;" edge="1" parent="1" source="zn5OT-CPFAkavPBHqEo0-29" target="ChahyyR_kMB4jTQxaiLf-25">
          <mxGeometry relative="1" as="geometry" />
        </mxCell>
        <mxCell id="ChahyyR_kMB4jTQxaiLf-78" style="edgeStyle=orthogonalEdgeStyle;shape=connector;rounded=0;orthogonalLoop=1;jettySize=auto;html=1;exitX=0.5;exitY=1;exitDx=0;exitDy=0;exitPerimeter=0;entryX=0.5;entryY=0;entryDx=0;entryDy=0;entryPerimeter=0;strokeColor=default;align=center;verticalAlign=middle;fontFamily=Helvetica;fontSize=11;fontColor=default;labelBackgroundColor=default;endArrow=classic;curved=1;" edge="1" parent="1" source="zn5OT-CPFAkavPBHqEo0-26" target="ChahyyR_kMB4jTQxaiLf-25">
          <mxGeometry relative="1" as="geometry" />
        </mxCell>
        <mxCell id="N2ckqAr41gQwFqoDvmQL-1" style="edgeStyle=orthogonalEdgeStyle;rounded=0;orthogonalLoop=1;jettySize=auto;html=1;exitX=1;exitY=0.75;exitDx=0;exitDy=0;exitPerimeter=0;entryX=1;entryY=0.75;entryDx=0;entryDy=0;entryPerimeter=0;curved=1;" edge="1" parent="1" source="zn5OT-CPFAkavPBHqEo0-23" target="zn5OT-CPFAkavPBHqEo0-26">
          <mxGeometry relative="1" as="geometry">
            <Array as="points">
              <mxPoint x="810" y="268" />
              <mxPoint x="810" y="805" />
            </Array>
          </mxGeometry>
        </mxCell>
      </root>
    </mxGraphModel>
  </diagram>
</mxfile>
